<?xml version="1.0" encoding="UTF-8" standalone="no"?>
<!DOCTYPE svg PUBLIC "-//W3C//DTD SVG 1.1//EN" "http://www.w3.org/Graphics/SVG/1.1/DTD/svg11.dtd">
<svg width="100%" height="100%" viewBox="0 0 28 28" version="1.1" xmlns="http://www.w3.org/2000/svg" xmlns:xlink="http://www.w3.org/1999/xlink" xml:space="preserve" xmlns:serif="http://www.serif.com/" style="fill-rule:evenodd;clip-rule:evenodd;stroke-linejoin:round;stroke-miterlimit:1.41421;">
    <g>
        <path id="c142_x" d="M13.98,0C6.259,0 0,6.261 0,13.983C0,21.704 6.259,27.965 13.98,27.965C21.705,27.965 27.965,21.703 27.965,13.983C27.965,6.261 21.705,0 13.98,0ZM22.992,19.769L19.765,22.993C19.765,22.993 14.242,17.213 13.979,17.213C13.72,17.213 8.196,22.993 8.196,22.993L4.968,19.769C4.968,19.769 10.752,14.297 10.752,13.988C10.752,13.674 4.968,8.201 4.968,8.201L8.196,4.972C8.196,4.972 13.749,10.754 13.979,10.754C14.211,10.754 19.765,4.972 19.765,4.972L22.992,8.201C22.992,8.201 17.207,13.724 17.207,13.988C17.207,14.239 22.992,19.769 22.992,19.769Z" style="fill:rgb(64,64,64);fill-rule:nonzero;"/>
    </g>
</svg>
