<?xml version="1.0" encoding="UTF-8" standalone="no"?>
<!DOCTYPE svg PUBLIC "-//W3C//DTD SVG 1.1//EN" "http://www.w3.org/Graphics/SVG/1.1/DTD/svg11.dtd">
<svg width="100%" height="100%" viewBox="0 0 612 792" version="1.1" xmlns="http://www.w3.org/2000/svg" xmlns:xlink="http://www.w3.org/1999/xlink" xml:space="preserve" xmlns:serif="http://www.serif.com/" style="fill-rule:evenodd;clip-rule:evenodd;stroke-linejoin:round;stroke-miterlimit:1.41421;">
    <g transform="matrix(0.906031,0,0,0.906031,28.7546,37.2119)">
        <path d="M306.9,116.513L307.799,116.517L308.698,116.525L309.595,116.535L310.493,116.547L311.391,116.563L312.287,116.582L313.183,116.603L314.078,116.627L314.973,116.654L315.867,116.684L316.761,116.716L317.654,116.752L318.546,116.79L319.438,116.831L320.33,116.875L321.219,116.921L322.109,116.971L322.999,117.023L323.887,117.078L324.775,117.136L325.663,117.196L326.548,117.26L327.435,117.326L328.32,117.395L329.204,117.466L330.089,117.541L330.972,117.618L331.854,117.698L332.736,117.78L333.617,117.866L334.497,117.954L335.377,118.045L336.255,118.138L337.134,118.234L338.011,118.333L338.888,118.435L339.764,118.54L340.639,118.647L341.513,118.757L342.386,118.869L343.26,118.985L344.132,119.103L345.003,119.223L345.873,119.347L346.743,119.473L347.612,119.601L348.479,119.733L349.347,119.867L350.213,120.004L351.078,120.143L351.943,120.285L352.807,120.43L353.67,120.577L354.532,120.727L355.393,120.879L356.254,121.035L357.114,121.193L357.972,121.353L358.83,121.516L359.687,121.682L360.542,121.85L361.397,122.021L362.252,122.195L363.105,122.371L363.958,122.55L364.808,122.731L365.659,122.915L366.51,123.102L367.358,123.291L368.205,123.483L369.052,123.677L369.897,123.874L370.742,124.073L371.586,124.275L372.429,124.48L373.271,124.687L374.111,124.896L374.952,125.108L375.791,125.323L376.629,125.54L377.466,125.76L378.301,125.982L379.136,126.207L379.97,126.434L380.802,126.664L381.634,126.896L382.466,127.131L383.295,127.368L384.123,127.608L384.951,127.85L385.778,128.095L386.603,128.342L387.428,128.592L388.251,128.844L389.073,129.098L389.895,129.356L390.715,129.615L391.534,129.877L392.352,130.141L393.168,130.408L393.984,130.677L394.799,130.949L395.612,131.223L396.424,131.5L397.236,131.779L398.046,132.06L398.855,132.344L399.663,132.63L400.47,132.919L401.275,133.21L402.079,133.503L402.882,133.799L403.685,134.097L404.486,134.398L405.285,134.7L406.083,135.005L406.881,135.313L407.678,135.623L408.472,135.935L409.266,136.25L410.059,136.567L410.85,136.886L411.639,137.208L412.429,137.532L413.217,137.858L414.003,138.187L414.789,138.518L415.573,138.851L416.355,139.186L417.137,139.524L417.917,139.865L418.695,140.207L419.474,140.552L420.25,140.899L421.025,141.248L421.799,141.6L422.572,141.953L423.343,142.309L424.113,142.668L424.883,143.029L425.65,143.392L426.416,143.757L427.181,144.124L427.944,144.493L428.706,144.865L429.468,145.24L430.228,145.616L430.986,145.994L431.742,146.375L432.499,146.758L433.253,147.143L434.005,147.53L434.758,147.92L435.508,148.312L436.256,148.706L437.004,149.102L437.75,149.5L438.495,149.9L439.238,150.303L439.981,150.708L440.722,151.115L441.46,151.524L442.199,151.935L442.935,152.349L443.67,152.764L444.404,153.182L445.136,153.602L445.866,154.023L446.597,154.448L447.326,154.874L448.051,155.302L448.776,155.732L449.501,156.166L450.224,156.6L450.944,157.037L451.663,157.476L452.381,157.916L453.098,158.359L453.813,158.805L454.527,159.252L455.239,159.701L455.95,160.153L456.659,160.606L457.366,161.061L458.073,161.519L458.778,161.979L459.481,162.44L460.183,162.904L460.884,163.37L461.582,163.837L462.28,164.307L462.975,164.778L463.669,165.252L464.363,165.729L465.054,166.206L465.743,166.686L466.432,167.168L467.119,167.652L467.804,168.137L468.487,168.625L469.17,169.116L469.85,169.607L470.529,170.101L471.206,170.596L471.882,171.094L472.557,171.594L473.229,172.095L473.9,172.599L474.57,173.105L475.238,173.613L475.905,174.122L476.569,174.633L477.231,175.146L477.894,175.662L478.555,176.18L479.212,176.698L479.869,177.219L480.524,177.742L481.178,178.267L481.83,178.794L482.48,179.322L483.129,179.853L483.776,180.386L484.421,180.92L485.066,181.457L485.708,181.995L486.348,182.535L486.987,183.076L487.624,183.62L488.259,184.165L488.894,184.714L489.527,185.264L490.156,185.814L490.785,186.367L491.413,186.923L492.038,187.479L492.662,188.037L493.283,188.597L493.904,189.16L494.524,189.725L495.141,190.291L495.755,190.857L496.369,191.427L496.982,192L497.591,192.572L498.199,193.147L498.807,193.724L499.412,194.303L500.015,194.883L500.616,195.465L501.216,196.049L501.814,196.634L502.41,197.221L503.005,197.811L503.598,198.402L504.188,198.995L504.779,199.59L505.366,200.186L505.951,200.784L506.535,201.383L507.118,201.986L507.698,202.589L508.276,203.193L508.853,203.8L509.428,204.409L510.001,205.019L510.573,205.631L511.142,206.245L511.709,206.859L512.275,207.476L512.84,208.096L513.402,208.716L513.963,209.338L514.521,209.962L515.078,210.587L515.633,211.214L516.186,211.844L516.737,212.474L517.286,213.106L517.834,213.741L518.38,214.376L518.924,215.013L519.465,215.651L520.005,216.293L520.543,216.934L521.08,217.578L521.615,218.224L522.147,218.871L522.678,219.52L523.206,220.17L523.733,220.822L524.258,221.476L524.781,222.131L525.302,222.788L525.82,223.445L526.339,224.107L526.854,224.768L527.366,225.43L527.878,226.096L528.388,226.763L528.895,227.429L529.401,228.1L529.905,228.772L530.406,229.443L530.906,230.118L531.403,230.793L531.899,231.471L532.393,232.15L532.884,232.83L533.375,233.513L533.863,234.196L534.348,234.881L534.832,235.568L535.315,236.257L535.794,236.947L536.272,237.637L536.748,238.331L537.221,239.024L537.693,239.72L538.164,240.419L538.631,241.117L539.096,241.816L539.56,242.519L540.022,243.223L540.481,243.927L540.939,244.634L541.394,245.342L541.847,246.05L542.298,246.76L542.748,247.473L543.195,248.187L543.64,248.902L544.084,249.619L544.525,250.337L544.964,251.057L545.399,251.776L545.834,252.499L546.268,253.224L546.698,253.949L547.126,254.674L547.552,255.404L547.977,256.134L548.398,256.863L548.818,257.596L549.236,258.33L549.651,259.065L550.064,259.801L550.476,260.54L550.885,261.279L551.292,262.02L551.697,262.762L552.099,263.505L552.5,264.25L552.898,264.996L553.294,265.743L553.689,266.493L554.08,267.242L554.469,267.994L554.857,268.747L555.242,269.502L555.625,270.258L556.005,271.014L556.384,271.772L556.76,272.532L557.135,273.294L557.507,274.056L557.876,274.819L558.243,275.584L558.609,276.351L558.971,277.118L559.332,277.886L559.691,278.657L560.047,279.429L560.4,280.2L560.752,280.974L561.101,281.751L561.448,282.527L561.793,283.304L562.135,284.083L562.476,284.863L562.813,285.645L563.149,286.427L563.482,287.211L563.813,287.997L564.142,288.784L564.468,289.571L564.792,290.36L565.114,291.15L565.433,291.942L565.75,292.734L566.065,293.527L566.377,294.323L566.687,295.12L566.995,295.916L567.3,296.715L567.603,297.515L567.903,298.316L568.201,299.117L568.497,299.921L568.79,300.725L569.081,301.53L569.37,302.337L569.656,303.144L569.94,303.954L570.221,304.765L570.5,305.574L570.777,306.388L571.051,307.201L571.322,308.015L571.592,308.831L571.859,309.649L572.123,310.467L572.385,311.285L572.644,312.105L572.902,312.927L573.156,313.749L573.408,314.573L573.658,315.397L573.905,316.221L574.15,317.049L574.392,317.877L574.632,318.705L574.869,319.535L575.104,320.365L575.336,321.197L575.566,322.031L575.793,322.864L576.018,323.698L576.24,324.534L576.46,325.371L576.677,326.209L576.892,327.049L577.104,327.888L577.313,328.729L577.52,329.571L577.725,330.414L577.927,331.257L578.126,332.102L578.323,332.949L578.518,333.796L578.709,334.642L578.898,335.491L579.085,336.341L579.269,337.191L579.45,338.042L579.629,338.895L579.805,339.749L579.979,340.602L580.149,341.456L580.318,342.313L580.484,343.17L580.647,344.028L580.807,344.887L580.965,345.747L581.121,346.607L581.273,347.468L581.423,348.33L581.57,349.192L581.715,350.056L581.857,350.921L581.997,351.787L582.133,352.654L582.267,353.52L582.399,354.388L582.527,355.257L582.653,356.127L582.777,356.998L582.897,357.869L583.015,358.74L583.131,359.612L583.243,360.487L583.353,361.361L583.46,362.235L583.565,363.113L583.667,363.99L583.766,364.866L583.862,365.743L583.955,366.623L584.046,367.503L584.134,368.383L584.22,369.264L584.302,370.146L584.382,371.029L584.46,371.912L584.534,372.796L584.606,373.681L584.674,374.565L584.74,375.45L584.804,376.337L584.864,377.226L584.922,378.114L584.977,379L585.029,379.89L585.079,380.781L585.125,381.671L585.169,382.562L585.21,383.453L585.248,384.346L585.284,385.24L585.316,386.133L585.346,387.026L585.373,387.922L585.397,388.818L585.418,389.713L585.437,390.609L585.453,391.506L585.465,392.405L585.475,393.303L585.483,394.201L585.487,395.1L585.488,396L585.487,396.9L585.483,397.799L585.475,398.697L585.465,399.595L585.453,400.494L585.437,401.391L585.418,402.287L585.397,403.182L585.373,404.078L585.346,404.974L585.316,405.867L585.284,406.76L585.248,407.654L585.21,408.547L585.169,409.438L585.125,410.329L585.079,411.219L585.029,412.11L584.977,413L584.922,413.886L584.864,414.774L584.804,415.663L584.74,416.55L584.674,417.435L584.606,418.319L584.534,419.204L584.46,420.088L584.382,420.971L584.302,421.854L584.22,422.736L584.134,423.617L584.046,424.497L583.955,425.377L583.862,426.257L583.766,427.134L583.667,428.01L583.565,428.887L583.46,429.765L583.353,430.639L583.243,431.513L583.131,432.388L583.015,433.26L582.897,434.131L582.777,435.002L582.653,435.873L582.527,436.743L582.399,437.612L582.267,438.48L582.133,439.346L581.997,440.213L581.857,441.079L581.715,441.944L581.57,442.808L581.423,443.67L581.273,444.532L581.121,445.393L580.965,446.253L580.807,447.113L580.647,447.972L580.484,448.83L580.318,449.687L580.149,450.544L579.979,451.398L579.805,452.251L579.629,453.105L579.45,453.958L579.269,454.809L579.085,455.659L578.898,456.509L578.709,457.358L578.518,458.204L578.323,459.051L578.126,459.898L577.927,460.743L577.725,461.586L577.52,462.429L577.313,463.271L577.104,464.112L576.892,464.951L576.677,465.791L576.46,466.629L576.24,467.466L576.018,468.302L575.793,469.136L575.566,469.969L575.336,470.803L575.104,471.635L574.869,472.465L574.632,473.295L574.392,474.123L574.15,474.951L573.905,475.779L573.658,476.603L573.408,477.427L573.156,478.251L572.902,479.073L572.644,479.895L572.385,480.715L572.123,481.533L571.859,482.351L571.592,483.169L571.322,483.985L571.051,484.799L570.777,485.612L570.5,486.426L570.221,487.235L569.94,488.046L569.656,488.856L569.37,489.663L569.081,490.47L568.79,491.275L568.497,492.079L568.201,492.883L567.903,493.684L567.603,494.485L567.3,495.285L566.995,496.084L566.687,496.88L566.377,497.677L566.065,498.473L565.75,499.266L565.433,500.058L565.114,500.85L564.792,501.64L564.468,502.429L564.142,503.216L563.813,504.003L563.482,504.789L563.149,505.573L562.813,506.355L562.476,507.137L562.135,507.917L561.793,508.696L561.448,509.473L561.101,510.249L560.752,511.026L560.4,511.8L560.047,512.571L559.691,513.343L559.332,514.114L558.971,514.882L558.609,515.649L558.243,516.416L557.876,517.181L557.507,517.944L557.135,518.706L556.76,519.468L556.384,520.228L556.005,520.986L555.625,521.742L555.242,522.498L554.857,523.253L554.469,524.006L554.08,524.758L553.689,525.507L553.294,526.257L552.898,527.004L552.5,527.75L552.099,528.495L551.697,529.238L551.292,529.98L550.885,530.721L550.476,531.46L550.064,532.199L549.651,532.935L549.236,533.67L548.818,534.404L548.398,535.137L547.977,535.866L547.552,536.596L547.126,537.326L546.698,538.051L546.268,538.776L545.834,539.501L545.399,540.224L544.964,540.943L544.525,541.663L544.084,542.381L543.64,543.098L543.195,543.813L542.748,544.527L542.298,545.24L541.847,545.95L541.394,546.658L540.939,547.366L540.481,548.073L540.022,548.777L539.56,549.481L539.096,550.184L538.631,550.883L538.164,551.581L537.693,552.28L537.221,552.976L536.748,553.669L536.272,554.363L535.794,555.053L535.315,555.743L534.832,556.432L534.348,557.119L533.863,557.804L533.375,558.487L532.885,559.169L532.393,559.85L531.898,560.53L531.403,561.207L530.906,561.882L530.406,562.556L529.904,563.229L529.401,563.9L528.895,564.57L528.388,565.238L527.878,565.905L527.366,566.57L526.853,567.233L526.338,567.894L525.821,568.553L525.303,569.211L524.781,569.869L524.256,570.526L523.732,571.179L523.206,571.83L522.677,572.481L522.147,573.129L521.615,573.776L521.08,574.422L520.543,575.066L520.006,575.707L519.465,576.348L518.923,576.988L518.38,577.624L517.834,578.259L517.286,578.894L516.737,579.526L516.186,580.156L515.633,580.786L515.079,581.412L514.522,582.037L513.962,582.663L513.401,583.285L512.84,583.904L512.275,584.524L511.71,585.14L511.142,585.756L510.572,586.369L510.002,586.98L509.427,587.592L508.852,588.2L508.277,588.806L507.698,589.411L507.117,590.015L506.535,590.617L505.952,591.216L505.366,591.814L504.778,592.411L504.188,593.006L503.598,593.598L503.005,594.189L502.41,594.779L501.814,595.365L501.216,595.952L500.617,596.535L500.016,597.116L499.41,597.699L498.805,598.277L498.2,598.853L497.591,599.428L496.982,600L496.369,600.572L495.756,601.142L495.141,601.709L494.523,602.276L493.904,602.84L493.283,603.403L492.663,603.962L492.039,604.52L491.412,605.079L490.786,605.633L490.157,606.186L489.526,606.737L488.892,607.288L488.259,607.835L487.625,608.379L486.987,608.924L486.35,609.464L485.709,610.004L485.065,610.544L484.421,611.08L483.776,611.615L483.129,612.147L482.481,612.677L481.83,613.206L481.177,613.734L480.524,614.258L479.869,614.781L479.212,615.302L478.554,615.821L477.893,616.339L477.232,616.854L476.57,617.366L475.906,617.877L475.238,618.387L474.57,618.895L473.899,619.402L473.229,619.904L472.557,620.406L471.882,620.906L471.207,621.403L470.527,621.9L469.849,622.394L469.17,622.884L468.488,623.374L467.804,623.863L467.118,624.348L466.433,624.831L465.744,625.314L465.054,625.794L464.364,626.271L463.668,626.749L462.975,627.222L462.28,627.693L461.581,628.164L460.884,628.63L460.183,629.096L459.48,629.561L458.779,630.021L458.072,630.482L457.365,630.94L456.661,631.393L455.95,631.847L455.238,632.3L454.527,632.748L453.814,633.195L453.098,633.64L452.381,634.084L451.663,634.525L450.943,634.964L450.223,635.4L449.501,635.834L448.777,636.267L448.05,636.698L447.326,637.125L446.599,637.551L445.868,637.976L445.137,638.398L444.404,638.818L443.67,639.236L442.935,639.651L442.197,640.066L441.459,640.477L440.721,640.885L439.982,641.292L439.241,641.696L438.494,642.1L437.748,642.501L437.004,642.898L436.257,643.294L435.508,643.688L434.759,644.079L434.005,644.47L433.25,644.858L432.498,645.242L431.743,645.625L430.985,646.006L430.229,646.383L429.469,646.76L428.705,647.135L427.943,647.507L427.183,647.875L426.416,648.244L425.648,648.609L424.884,648.97L424.114,649.332L423.343,649.691L422.571,650.047L421.798,650.401L421.024,650.752L420.249,651.101L419.473,651.448L418.696,651.793L417.918,652.135L417.137,652.476L416.354,652.814L415.573,653.149L414.789,653.482L414.003,653.813L413.216,654.142L412.429,654.468L411.64,654.792L410.851,655.113L410.061,655.432L409.264,655.751L408.472,656.065L407.679,656.376L406.882,656.687L406.084,656.995L405.283,657.301L404.486,657.602L403.686,657.903L402.881,658.202L402.079,658.497L401.276,658.79L400.47,659.081L399.662,659.37L398.856,659.656L398.047,659.94L397.234,660.222L396.423,660.501L395.614,660.776L394.799,661.051L393.985,661.322L393.17,661.591L392.352,661.858L391.533,662.123L390.714,662.385L389.894,662.645L389.072,662.902L388.253,663.156L387.43,663.408L386.603,663.658L385.776,663.906L384.951,664.15L384.125,664.392L383.295,664.632L382.465,664.869L381.633,665.104L380.802,665.336L379.972,665.565L379.139,665.792L378.299,666.019L377.464,666.24L376.629,666.46L375.789,666.677L374.952,666.891L374.112,667.104L373.271,667.313L372.429,667.52L371.586,667.725L370.743,667.927L369.898,668.126L369.054,668.323L368.206,668.517L367.357,668.709L366.507,668.898L365.66,669.085L364.809,669.269L363.958,669.45L363.105,669.629L362.25,669.805L361.396,669.979L360.542,670.15L359.688,670.318L358.83,670.484L357.971,670.647L357.115,670.807L356.255,670.965L355.394,671.12L354.533,671.273L353.669,671.423L352.807,671.571L351.944,671.715L351.077,671.857L350.213,671.996L349.349,672.133L348.479,672.268L347.61,672.399L346.744,672.527L345.875,672.653L345.002,672.777L344.131,672.897L343.26,673.015L342.386,673.131L341.514,673.243L340.639,673.353L339.763,673.46L338.887,673.565L338.01,673.667L337.136,673.765L336.255,673.862L335.374,673.956L334.499,674.046L333.617,674.134L332.734,674.22L331.854,674.302L330.971,674.382L330.088,674.459L329.207,674.534L328.322,674.605L327.435,674.674L326.547,674.741L325.661,674.804L324.775,674.864L323.886,674.922L323,674.977L322.11,675.029L321.219,675.079L320.329,675.125L319.438,675.169L318.547,675.21L317.652,675.248L316.76,675.284L315.868,675.316L314.973,675.346L314.08,675.373L313.184,675.397L312.285,675.419L311.391,675.437L310.494,675.453L309.597,675.465L308.699,675.475L307.799,675.483L306.898,675.487L306,675.488L305.102,675.487L304.201,675.483L303.301,675.475L302.403,675.465L301.506,675.453L300.609,675.437L299.715,675.419L298.816,675.397L297.92,675.373L297.027,675.346L296.132,675.316L295.24,675.284L294.348,675.248L293.453,675.21L292.562,675.169L291.671,675.125L290.781,675.079L289.89,675.029L289,674.977L288.114,674.922L287.225,674.864L286.339,674.804L285.453,674.741L284.565,674.674L283.678,674.605L282.793,674.534L281.912,674.459L281.029,674.382L280.146,674.302L279.266,674.22L278.383,674.134L277.501,674.046L276.626,673.956L275.745,673.862L274.864,673.765L273.99,673.667L273.113,673.565L272.237,673.46L271.361,673.353L270.486,673.243L269.614,673.131L268.74,673.015L267.869,672.897L266.998,672.777L266.125,672.653L265.256,672.527L264.39,672.399L263.521,672.268L262.651,672.133L261.787,671.996L260.923,671.857L260.056,671.715L259.193,671.571L258.331,671.423L257.467,671.273L256.606,671.12L255.745,670.965L254.885,670.807L254.029,670.647L253.17,670.484L252.312,670.318L251.458,670.15L250.604,669.979L249.75,669.805L248.895,669.629L248.042,669.45L247.191,669.269L246.34,669.085L245.493,668.898L244.643,668.709L243.794,668.517L242.946,668.323L242.102,668.126L241.257,667.927L240.414,667.725L239.571,667.52L238.729,667.313L237.888,667.104L237.048,666.891L236.211,666.677L235.371,666.46L234.536,666.24L233.701,666.019L232.861,665.792L232.028,665.565L231.198,665.336L230.366,665.104L229.535,664.869L228.705,664.632L227.875,664.392L227.049,664.15L226.224,663.906L225.397,663.658L224.57,663.408L223.747,663.156L222.928,662.902L222.107,662.645L221.286,662.385L220.467,662.123L219.648,661.858L218.83,661.591L218.015,661.322L217.202,661.051L216.386,660.776L215.577,660.501L214.766,660.222L213.953,659.94L213.144,659.656L212.338,659.37L211.531,659.081L210.724,658.79L209.921,658.497L209.118,658.202L208.315,657.903L207.514,657.602L206.717,657.301L205.916,656.995L205.118,656.687L204.322,656.377L203.528,656.065L202.736,655.751L201.939,655.432L201.149,655.113L200.36,654.792L199.571,654.468L198.784,654.142L197.997,653.813L197.212,653.482L196.427,653.149L195.646,652.814L194.863,652.476L194.082,652.135L193.304,651.793L192.527,651.448L191.751,651.101L190.976,650.752L190.202,650.401L189.428,650.047L188.657,649.69L187.886,649.332L187.116,648.97L186.352,648.609L185.584,648.244L184.817,647.875L184.057,647.507L183.295,647.135L182.531,646.76L181.771,646.383L181.015,646.006L180.257,645.625L179.503,645.243L178.749,644.858L177.995,644.47L177.242,644.08L176.492,643.688L175.743,643.294L174.995,642.898L174.251,642.501L173.506,642.1L172.759,641.696L172.019,641.292L171.279,640.885L170.54,640.477L169.803,640.066L169.065,639.651L168.33,639.236L167.596,638.818L166.863,638.398L166.132,637.976L165.402,637.551L164.675,637.126L163.949,636.698L163.223,636.267L162.499,635.835L161.778,635.4L161.057,634.964L160.337,634.525L159.619,634.083L158.902,633.64L158.186,633.195L157.473,632.748L156.762,632.3L156.05,631.847L155.339,631.393L154.634,630.939L153.928,630.482L153.221,630.021L152.519,629.56L151.817,629.096L151.116,628.63L150.419,628.163L149.72,627.693L149.025,627.222L148.331,626.748L147.637,626.271L146.945,625.793L146.256,625.314L145.567,624.831L144.882,624.349L144.196,623.863L143.512,623.374L142.831,622.885L142.151,622.393L141.472,621.9L140.794,621.404L140.118,620.906L139.443,620.406L138.77,619.904L138.101,619.402L137.431,618.896L136.762,618.387L136.094,617.877L135.43,617.366L134.768,616.853L134.106,616.338L133.446,615.821L132.788,615.302L132.131,614.781L131.475,614.257L130.823,613.733L130.17,613.206L129.519,612.677L128.871,612.146L128.224,611.614L127.579,611.08L126.935,610.544L126.291,610.005L125.651,609.464L125.013,608.924L124.376,608.379L123.741,607.834L123.108,607.288L122.475,606.738L121.842,606.185L121.214,605.632L120.589,605.079L119.961,604.52L119.337,603.962L118.717,603.403L118.095,602.84L117.478,602.277L116.86,601.71L116.243,601.141L115.63,600.572L115.019,600.001L114.409,599.428L113.8,598.853L113.195,598.277L112.59,597.699L111.984,597.116L111.384,596.535L110.784,595.952L110.185,595.365L109.589,594.778L108.995,594.189L108.403,593.598L107.811,593.005L107.222,592.411L106.634,591.814L106.048,591.215L105.465,590.616L104.884,590.016L104.303,589.412L103.723,588.805L103.147,588.2L102.573,587.592L101.998,586.98L101.428,586.37L100.858,585.755L100.29,585.14L99.725,584.524L99.16,583.904L98.598,583.284L98.038,582.663L97.479,582.038L96.922,581.412L96.367,580.785L95.814,580.156L95.264,579.527L94.714,578.894L94.165,578.259L93.62,577.624L93.077,576.988L92.534,576.348L91.995,575.708L91.457,575.066L90.92,574.421L90.386,573.776L89.853,573.129L89.323,572.481L88.794,571.83L88.268,571.179L87.743,570.526L87.219,569.869L86.697,569.211L86.178,568.553L85.662,567.895L85.146,567.232L84.633,566.569L84.123,565.906L83.613,565.238L83.104,564.569L82.599,563.9L82.096,563.23L81.594,562.556L81.094,561.881L80.597,561.207L80.101,560.53L79.607,559.85L79.115,559.169L78.625,558.487L78.137,557.804L77.652,557.119L77.168,556.432L76.686,555.743L76.206,555.054L75.729,554.363L75.252,553.669L74.778,552.975L74.307,552.28L73.837,551.582L73.37,550.884L72.904,550.183L72.44,549.481L71.979,548.778L71.519,548.073L71.061,547.366L70.606,546.659L70.153,545.95L69.701,545.239L69.252,544.527L68.805,543.813L68.359,543.098L67.916,542.381L67.476,541.663L67.037,540.944L66.6,540.224L66.166,539.501L65.732,538.776L65.302,538.051L64.874,537.326L64.448,536.597L64.023,535.866L63.602,535.136L63.182,534.404L62.764,533.67L62.349,532.935L61.935,532.199L61.524,531.46L61.115,530.722L60.708,529.981L60.303,529.238L59.9,528.495L59.5,527.75L59.102,527.004L58.706,526.256L58.312,525.508L57.92,524.758L57.53,524.005L57.143,523.253L56.758,522.499L56.375,521.742L55.994,520.986L55.616,520.228L55.24,519.468L54.865,518.706L54.493,517.944L54.124,517.181L53.757,516.416L53.392,515.65L53.029,514.882L52.668,514.113L52.309,513.343L51.953,512.572L51.6,511.799L51.248,511.025L50.899,510.25L50.552,509.474L50.207,508.695L49.864,507.917L49.524,507.137L49.187,506.355L48.851,505.573L48.518,504.789L48.187,504.003L47.858,503.217L47.532,502.429L47.208,501.64L46.886,500.85L46.567,500.059L46.25,499.266L45.935,498.472L45.623,497.677L45.313,496.881L45.005,496.083L44.7,495.285L44.397,494.486L44.097,493.685L43.799,492.882L43.503,492.08L43.21,491.275L42.919,490.47L42.63,489.663L42.344,488.855L42.06,488.046L41.779,487.236L41.5,486.425L41.223,485.612L40.949,484.799L40.677,483.984L40.408,483.169L40.141,482.352L39.877,481.534L39.615,480.715L39.356,479.895L39.098,479.073L38.844,478.251L38.592,477.428L38.342,476.603L38.095,475.778L37.85,474.951L37.608,474.124L37.368,473.295L37.131,472.466L36.896,471.634L36.664,470.803L36.434,469.97L36.207,469.136L35.982,468.301L35.76,467.466L35.54,466.629L35.323,465.791L35.108,464.952L34.896,464.112L34.687,463.271L34.48,462.429L34.275,461.586L34.073,460.742L33.874,459.897L33.677,459.052L33.483,458.205L33.291,457.358L33.102,456.509L32.915,455.659L32.731,454.809L32.55,453.957L32.371,453.105L32.195,452.252L32.021,451.398L31.85,450.542L31.682,449.687L31.516,448.83L31.353,447.972L31.193,447.113L31.035,446.254L30.879,445.393L30.727,444.532L30.577,443.67L30.43,442.807L30.285,441.943L30.143,441.078L30.003,440.213L29.867,439.347L29.733,438.48L29.601,437.612L29.473,436.743L29.347,435.873L29.223,435.003L29.103,434.131L28.985,433.26L28.869,432.387L28.757,431.513L28.647,430.639L28.54,429.764L28.435,428.888L28.333,428.011L28.234,427.134L28.138,426.256L28.044,425.377L27.954,424.497L27.866,423.617L27.78,422.736L27.698,421.854L27.618,420.971L27.541,420.089L27.466,419.205L27.395,418.32L27.326,417.435L27.26,416.549L27.196,415.662L27.136,414.775L27.078,413.887L27.023,412.998L26.971,412.109L26.921,411.219L26.875,410.329L26.831,409.438L26.79,408.546L26.752,407.654L26.716,406.761L26.684,405.867L26.654,404.973L26.627,404.078L26.603,403.183L26.582,402.287L26.563,401.39L26.547,400.493L26.535,399.596L26.525,398.698L26.517,397.799L26.513,396.9L26.512,396L26.513,395.1L26.517,394.201L26.525,393.302L26.535,392.404L26.547,391.507L26.563,390.61L26.582,389.713L26.603,388.817L26.627,387.922L26.654,387.027L26.684,386.133L26.716,385.239L26.752,384.346L26.79,383.454L26.831,382.562L26.875,381.671L26.921,380.781L26.971,379.891L27.023,379.002L27.078,378.113L27.136,377.225L27.196,376.338L27.26,375.451L27.326,374.565L27.395,373.68L27.466,372.795L27.541,371.911L27.618,371.029L27.698,370.146L27.78,369.264L27.866,368.383L27.954,367.503L28.044,366.623L28.138,365.744L28.234,364.866L28.333,363.989L28.435,363.112L28.54,362.236L28.647,361.361L28.757,360.487L28.869,359.613L28.985,358.74L29.103,357.869L29.223,356.997L29.347,356.127L29.473,355.257L29.601,354.388L29.733,353.52L29.867,352.653L30.003,351.787L30.143,350.922L30.285,350.057L30.43,349.193L30.577,348.33L30.727,347.468L30.879,346.607L31.035,345.746L31.193,344.887L31.353,344.028L31.516,343.17L31.682,342.313L31.85,341.458L32.021,340.602L32.195,339.748L32.371,338.895L32.55,338.043L32.731,337.191L32.915,336.341L33.102,335.491L33.291,334.642L33.483,333.795L33.677,332.948L33.874,332.103L34.073,331.258L34.275,330.414L34.48,329.571L34.687,328.729L34.896,327.888L35.108,327.048L35.323,326.209L35.54,325.371L35.76,324.534L35.982,323.699L36.207,322.864L36.434,322.03L36.664,321.197L36.896,320.366L37.131,319.534L37.368,318.705L37.608,317.876L37.85,317.049L38.095,316.222L38.342,315.397L38.592,314.572L38.844,313.749L39.098,312.927L39.356,312.105L39.615,311.285L39.877,310.466L40.141,309.648L40.408,308.831L40.677,308.016L40.949,307.201L41.223,306.388L41.5,305.575L41.779,304.764L42.06,303.954L42.344,303.145L42.63,302.337L42.919,301.53L43.21,300.725L43.503,299.92L43.799,299.118L44.097,298.315L44.397,297.514L44.7,296.715L45.005,295.917L45.313,295.119L45.623,294.323L45.935,293.528L46.25,292.734L46.567,291.941L46.886,291.15L47.208,290.36L47.532,289.571L47.858,288.783L48.187,287.997L48.518,287.211L48.851,286.427L49.187,285.645L49.524,284.863L49.864,284.083L50.207,283.305L50.552,282.526L50.899,281.75L51.248,280.975L51.6,280.201L51.953,279.428L52.309,278.657L52.668,277.887L53.029,277.118L53.392,276.35L53.757,275.584L54.124,274.819L54.493,274.056L54.865,273.294L55.24,272.532L55.616,271.772L55.994,271.014L56.375,270.258L56.758,269.501L57.143,268.747L57.53,267.995L57.92,267.242L58.312,266.492L58.706,265.744L59.102,264.996L59.5,264.25L59.9,263.505L60.303,262.762L60.708,262.019L61.115,261.278L61.524,260.54L61.935,259.801L62.349,259.065L62.764,258.33L63.182,257.596L63.602,256.864L64.023,256.134L64.448,255.403L64.874,254.674L65.302,253.949L65.732,253.224L66.166,252.499L66.6,251.776L67.037,251.056L67.476,250.337L67.916,249.619L68.359,248.902L68.805,248.187L69.252,247.473L69.701,246.761L70.153,246.05L70.606,245.341L71.061,244.634L71.519,243.927L71.979,243.222L72.44,242.519L72.904,241.817L73.37,241.116L73.837,240.418L74.307,239.72L74.778,239.025L75.252,238.331L75.729,237.637L76.206,236.946L76.686,236.257L77.168,235.568L77.652,234.881L78.137,234.196L78.625,233.513L79.116,232.83L79.607,232.15L80.101,231.471L80.596,230.794L81.094,230.118L81.594,229.443L82.095,228.771L82.599,228.1L83.105,227.43L83.613,226.762L84.122,226.095L84.633,225.431L85.146,224.769L85.662,224.106L86.18,223.445L86.698,222.788L87.219,222.131L87.742,221.476L88.267,220.822L88.794,220.17L89.322,219.52L89.853,218.871L90.386,218.224L90.92,217.579L91.457,216.934L91.995,216.292L92.535,215.652L93.076,215.013L93.62,214.376L94.165,213.741L94.714,213.106L95.264,212.473L95.814,211.844L96.367,211.215L96.923,210.587L97.479,209.962L98.037,209.338L98.597,208.717L99.16,208.096L99.725,207.476L100.291,206.859L100.857,206.245L101.427,205.631L102,205.018L102.572,204.409L103.147,203.801L103.724,203.193L104.303,202.588L104.883,201.985L105.465,201.384L106.049,200.784L106.634,200.186L107.221,199.59L107.811,198.995L108.403,198.402L108.995,197.811L109.589,197.222L110.186,196.635L110.784,196.049L111.384,195.465L111.985,194.883L112.588,194.303L113.194,193.724L113.8,193.147L114.409,192.572L115.019,191.999L115.631,191.428L116.245,190.858L116.86,190.29L117.477,189.724L118.095,189.16L118.716,188.598L119.338,188.037L119.962,187.479L120.587,186.922L121.215,186.367L121.843,185.814L122.474,185.263L123.106,184.714L123.74,184.166L124.376,183.62L125.013,183.076L125.652,182.535L126.292,181.995L126.934,181.457L127.579,180.92L128.224,180.386L128.871,179.854L129.52,179.322L130.17,178.794L130.822,178.267L131.475,177.743L132.131,177.219L132.788,176.698L133.446,176.179L134.106,175.662L134.768,175.146L135.431,174.633L136.095,174.122L136.762,173.613L137.43,173.105L138.1,172.599L138.771,172.096L139.443,171.594L140.119,171.094L140.794,170.596L141.471,170.101L142.15,169.607L142.831,169.115L143.513,168.625L144.196,168.137L144.882,167.651L145.568,167.168L146.256,166.686L146.946,166.206L147.637,165.729L148.331,165.252L149.025,164.778L149.72,164.307L150.417,163.837L151.117,163.369L151.817,162.904L152.519,162.44L153.222,161.978L153.927,161.519L154.633,161.061L155.341,160.606L156.05,160.153L156.761,159.701L157.473,159.252L158.187,158.805L158.902,158.359L159.619,157.917L160.336,157.476L161.056,157.037L161.777,156.6L162.499,156.165L163.224,155.733L163.948,155.303L164.675,154.874L165.404,154.448L166.133,154.024L166.864,153.602L167.596,153.182L168.33,152.764L169.065,152.349L169.802,151.935L170.539,151.524L171.278,151.115L172.019,150.708L172.762,150.303L173.505,149.9L174.25,149.5L174.996,149.102L175.744,148.706L176.492,148.312L177.243,147.92L177.995,147.53L178.747,147.143L179.502,146.758L180.258,146.375L181.014,145.994L181.772,145.616L182.532,145.239L183.294,144.865L184.056,144.494L184.819,144.124L185.584,143.757L186.35,143.392L187.118,143.029L187.887,142.668L188.657,142.31L189.428,141.954L190.201,141.599L190.975,141.248L191.75,140.899L192.526,140.552L193.304,140.207L194.083,139.865L194.863,139.524L195.645,139.186L196.428,138.851L197.212,138.518L197.996,138.187L198.783,137.858L199.571,137.532L200.361,137.208L201.151,136.886L201.941,136.567L202.734,136.25L203.528,135.935L204.322,135.623L205.119,135.313L205.917,135.005L206.715,134.7L207.514,134.397L208.315,134.097L209.118,133.799L209.921,133.503L210.725,133.21L211.531,132.919L212.337,132.63L213.145,132.344L213.954,132.06L214.764,131.779L215.576,131.5L216.388,131.223L217.201,130.949L218.016,130.677L218.832,130.408L219.648,130.141L220.466,129.877L221.285,129.615L222.105,129.356L222.927,129.098L223.749,128.844L224.572,128.592L225.397,128.342L226.222,128.095L227.049,127.85L227.877,127.608L228.705,127.368L229.534,127.131L230.365,126.896L231.197,126.664L232.03,126.434L232.864,126.207L233.699,125.982L234.534,125.76L235.371,125.54L236.209,125.323L237.048,125.108L237.889,124.896L238.729,124.687L239.571,124.48L240.414,124.275L241.258,124.073L242.103,123.874L242.948,123.677L243.795,123.483L244.642,123.291L245.49,123.102L246.341,122.915L247.192,122.731L248.042,122.55L248.895,122.371L249.748,122.195L250.603,122.021L251.458,121.85L252.313,121.682L253.17,121.516L254.028,121.353L254.886,121.193L255.746,121.035L256.607,120.879L257.468,120.727L258.33,120.577L259.193,120.43L260.057,120.285L260.922,120.143L261.787,120.004L262.653,119.867L263.521,119.733L264.388,119.601L265.257,119.473L266.127,119.347L266.997,119.223L267.868,119.103L268.74,118.985L269.614,118.869L270.487,118.757L271.361,118.647L272.236,118.54L273.112,118.435L273.989,118.333L274.866,118.234L275.745,118.138L276.623,118.045L277.503,117.954L278.383,117.866L279.264,117.78L280.146,117.698L281.028,117.618L281.911,117.541L282.796,117.466L283.68,117.395L284.565,117.326L285.452,117.26L286.337,117.196L287.225,117.136L288.113,117.078L289.001,117.023L289.891,116.971L290.781,116.921L291.67,116.875L292.562,116.831L293.454,116.79L294.346,116.752L295.239,116.716L296.133,116.684L297.027,116.654L297.922,116.627L298.817,116.603L299.713,116.582L300.609,116.563L301.507,116.547L302.405,116.535L303.302,116.525L304.201,116.517L305.1,116.513L306,116.512L306.9,116.513ZM305.293,177.217L304.586,177.221L303.88,177.226L303.174,177.234L302.469,177.244L301.764,177.256L301.06,177.271L300.357,177.288L299.654,177.307L298.951,177.328L298.249,177.351L297.548,177.377L296.847,177.405L296.147,177.435L295.448,177.467L294.749,177.501L294.05,177.538L293.352,177.576L292.655,177.617L291.958,177.66L291.262,177.706L290.566,177.753L289.871,177.803L289.177,177.855L288.483,177.909L287.79,177.965L287.098,178.023L286.406,178.083L285.714,178.146L285.024,178.211L284.333,178.278L283.644,178.347L282.955,178.418L282.267,178.491L281.579,178.566L280.892,178.644L280.206,178.724L279.52,178.805L278.835,178.889L278.151,178.975L277.467,179.063L276.784,179.154L276.102,179.246L275.42,179.34L274.739,179.437L274.059,179.536L273.379,179.636L272.7,179.739L272.022,179.844L271.344,179.951L270.667,180.06L269.991,180.171L269.315,180.284L268.64,180.399L267.966,180.517L267.293,180.636L266.62,180.757L265.948,180.881L265.277,181.006L264.606,181.134L263.936,181.263L263.267,181.395L262.598,181.529L261.931,181.664L261.264,181.802L260.597,181.942L259.932,182.084L259.267,182.227L258.603,182.373L257.94,182.521L257.277,182.671L256.616,182.823L255.955,182.977L255.295,183.132L254.635,183.29L253.976,183.45L253.319,183.612L252.661,183.776L252.005,183.941L251.35,184.109L250.695,184.279L250.041,184.451L249.388,184.624L248.735,184.8L248.084,184.977L247.433,185.157L246.783,185.338L246.134,185.522L245.486,185.707L244.838,185.895L244.191,186.084L243.546,186.275L242.9,186.468L242.256,186.663L241.613,186.86L240.97,187.059L240.329,187.26L239.688,187.463L239.048,187.668L238.409,187.874L237.771,188.083L237.133,188.293L236.497,188.505L235.861,188.72L235.226,188.936L234.592,189.154L233.959,189.373L233.327,189.595L232.696,189.819L232.065,190.044L231.436,190.272L230.807,190.501L230.179,190.732L229.553,190.965L228.927,191.2L228.302,191.437L227.678,191.675L227.054,191.916L226.432,192.158L225.811,192.402L225.19,192.648L224.571,192.896L223.952,193.145L223.335,193.397L222.718,193.65L222.102,193.905L221.487,194.162L220.874,194.421L220.261,194.681L219.649,194.944L219.038,195.208L218.428,195.474L217.819,195.741L217.211,196.011L216.603,196.282L215.997,196.555L215.392,196.83L214.788,197.107L214.185,197.386L213.582,197.666L212.981,197.948L212.381,198.232L211.782,198.517L211.183,198.804L210.586,199.094L209.99,199.384L209.395,199.677L208.801,199.971L208.207,200.267L207.615,200.565L207.024,200.865L206.434,201.166L205.845,201.469L205.257,201.774L204.67,202.08L204.084,202.389L203.499,202.698L202.915,203.01L202.332,203.323L201.75,203.639L201.17,203.955L200.59,204.274L200.012,204.594L199.434,204.916L198.858,205.239L198.282,205.565L197.708,205.891L197.135,206.22L196.563,206.55L195.992,206.882L195.422,207.216L194.853,207.551L194.285,207.888L193.719,208.227L193.153,208.567L192.589,208.909L192.025,209.253L191.463,209.598L190.902,209.945L190.342,210.293L189.783,210.643L189.226,210.995L188.669,211.349L188.114,211.704L187.559,212.06L187.006,212.419L186.454,212.779L185.903,213.14L185.354,213.503L184.805,213.868L184.258,214.234L183.711,214.602L183.166,214.972L182.623,215.343L182.08,215.716L181.538,216.09L180.998,216.466L180.459,216.844L179.921,217.223L179.384,217.603L178.848,217.985L178.314,218.369L177.781,218.755L177.249,219.141L176.718,219.53L176.188,219.92L175.66,220.311L175.133,220.705L174.607,221.099L174.082,221.495L173.559,221.893L173.037,222.292L172.516,222.693L171.996,223.096L171.477,223.499L170.96,223.905L170.444,224.312L169.929,224.72L169.416,225.13L168.903,225.541L168.392,225.954L167.882,226.369L167.374,226.785L166.867,227.202L166.361,227.621L165.856,228.041L165.353,228.463L164.851,228.886L164.35,229.311L163.85,229.737L163.352,230.165L162.855,230.594L162.36,231.025L161.865,231.457L161.372,231.891L160.88,232.326L160.39,232.762L159.901,233.2L159.413,233.64L158.927,234.081L158.442,234.523L157.958,234.967L157.476,235.412L156.994,235.858L156.515,236.306L156.036,236.756L155.559,237.206L155.083,237.659L154.609,238.112L154.136,238.567L153.664,239.024L153.194,239.482L152.725,239.941L152.258,240.401L151.792,240.863L151.327,241.327L150.863,241.792L150.401,242.258L149.941,242.725L149.482,243.194L149.024,243.664L148.567,244.136L148.112,244.609L147.659,245.083L147.206,245.559L146.756,246.036L146.306,246.515L145.858,246.994L145.412,247.476L144.967,247.958L144.523,248.442L144.081,248.927L143.64,249.413L143.2,249.901L142.762,250.39L142.326,250.88L141.891,251.372L141.457,251.865L141.025,252.36L140.594,252.855L140.165,253.352L139.737,253.85L139.311,254.35L138.886,254.851L138.463,255.353L138.041,255.856L137.621,256.361L137.202,256.867L136.785,257.374L136.369,257.882L135.954,258.392L135.541,258.903L135.13,259.416L134.72,259.929L134.312,260.444L133.905,260.96L133.499,261.477L133.096,261.996L132.693,262.516L132.292,263.037L131.893,263.559L131.495,264.082L131.099,264.607L130.705,265.133L130.311,265.66L129.92,266.188L129.53,266.718L129.141,267.249L128.755,267.781L128.369,268.314L127.985,268.848L127.603,269.384L127.223,269.921L126.844,270.459L126.466,270.998L126.09,271.538L125.716,272.08L125.343,272.623L124.972,273.166L124.602,273.711L124.234,274.258L123.868,274.805L123.503,275.354L123.14,275.903L122.779,276.454L122.419,277.006L122.06,277.559L121.704,278.114L121.349,278.669L120.995,279.226L120.643,279.783L120.293,280.342L119.945,280.902L119.598,281.463L119.253,282.025L118.909,282.589L118.567,283.153L118.227,283.719L117.888,284.285L117.551,284.853L117.216,285.422L116.882,285.992L116.55,286.563L116.22,287.135L115.891,287.708L115.565,288.282L115.239,288.858L114.916,289.434L114.594,290.012L114.274,290.59L113.955,291.17L113.639,291.75L113.323,292.332L113.01,292.915L112.698,293.499L112.389,294.084L112.08,294.67L111.774,295.257L111.469,295.845L111.166,296.434L110.865,297.024L110.565,297.615L110.267,298.207L109.971,298.801L109.677,299.395L109.384,299.99L109.094,300.586L108.804,301.183L108.517,301.782L108.232,302.381L107.948,302.981L107.666,303.582L107.386,304.185L107.107,304.788L106.83,305.392L106.555,305.997L106.282,306.603L106.011,307.211L105.741,307.819L105.474,308.428L105.208,309.038L104.944,309.649L104.681,310.261L104.421,310.874L104.162,311.487L103.905,312.102L103.65,312.718L103.397,313.335L103.145,313.952L102.896,314.571L102.648,315.19L102.402,315.811L102.158,316.432L101.916,317.054L101.675,317.678L101.437,318.302L101.2,318.927L100.965,319.553L100.732,320.179L100.501,320.807L100.272,321.436L100.044,322.065L99.819,322.696L99.595,323.327L99.373,323.959L99.154,324.592L98.936,325.226L98.72,325.861L98.505,326.497L98.293,327.133L98.083,327.771L97.874,328.409L97.668,329.048L97.463,329.688L97.26,330.329L97.059,330.97L96.86,331.613L96.663,332.256L96.468,332.9L96.275,333.546L96.084,334.191L95.895,334.838L95.707,335.486L95.522,336.134L95.338,336.783L95.157,337.433L94.977,338.084L94.8,338.735L94.624,339.388L94.451,340.041L94.279,340.695L94.109,341.35L93.941,342.005L93.776,342.661L93.612,343.319L93.45,343.976L93.29,344.635L93.132,345.295L92.977,345.955L92.823,346.616L92.671,347.277L92.521,347.94L92.373,348.603L92.227,349.267L92.084,349.932L91.942,350.597L91.802,351.264L91.664,351.931L91.529,352.598L91.395,353.267L91.263,353.936L91.134,354.606L91.006,355.277L90.881,355.948L90.757,356.62L90.636,357.293L90.517,357.966L90.399,358.64L90.284,359.315L90.171,359.991L90.06,360.667L89.951,361.344L89.844,362.022L89.739,362.7L89.636,363.379L89.536,364.059L89.437,364.739L89.34,365.42L89.246,366.102L89.154,366.784L89.063,367.467L88.975,368.151L88.889,368.835L88.805,369.52L88.724,370.206L88.644,370.892L88.566,371.579L88.491,372.267L88.418,372.955L88.347,373.644L88.278,374.333L88.211,375.024L88.146,375.714L88.083,376.406L88.023,377.098L87.965,377.79L87.909,378.483L87.855,379.177L87.803,379.871L87.753,380.566L87.706,381.262L87.66,381.958L87.617,382.655L87.576,383.352L87.538,384.05L87.501,384.749L87.467,385.448L87.435,386.147L87.405,386.847L87.377,387.548L87.351,388.249L87.328,388.951L87.307,389.654L87.288,390.357L87.271,391.06L87.256,391.764L87.244,392.469L87.234,393.174L87.226,393.88L87.221,394.586L87.217,395.293L87.216,396L87.217,396.707L87.221,397.414L87.226,398.12L87.234,398.826L87.244,399.531L87.256,400.236L87.271,400.94L87.288,401.643L87.307,402.346L87.328,403.049L87.351,403.751L87.377,404.452L87.405,405.153L87.435,405.853L87.467,406.552L87.501,407.251L87.538,407.95L87.576,408.648L87.617,409.345L87.66,410.042L87.706,410.738L87.753,411.434L87.803,412.129L87.855,412.823L87.909,413.517L87.965,414.21L88.023,414.902L88.083,415.594L88.146,416.286L88.211,416.976L88.278,417.667L88.347,418.356L88.418,419.045L88.491,419.733L88.566,420.421L88.644,421.108L88.724,421.794L88.805,422.48L88.889,423.165L88.975,423.849L89.063,424.533L89.154,425.216L89.246,425.898L89.34,426.58L89.437,427.261L89.536,427.941L89.636,428.621L89.739,429.3L89.844,429.978L89.951,430.656L90.06,431.333L90.171,432.009L90.284,432.685L90.399,433.36L90.517,434.034L90.636,434.707L90.757,435.38L90.881,436.052L91.006,436.723L91.134,437.394L91.263,438.064L91.395,438.733L91.529,439.402L91.664,440.069L91.802,440.736L91.942,441.403L92.084,442.068L92.227,442.733L92.373,443.397L92.521,444.06L92.671,444.723L92.823,445.384L92.977,446.045L93.132,446.705L93.29,447.365L93.45,448.024L93.612,448.681L93.776,449.339L93.941,449.995L94.109,450.65L94.279,451.305L94.451,451.959L94.624,452.612L94.8,453.265L94.977,453.916L95.157,454.567L95.338,455.217L95.522,455.866L95.707,456.514L95.895,457.162L96.084,457.809L96.275,458.454L96.468,459.1L96.663,459.744L96.86,460.387L97.059,461.03L97.26,461.671L97.463,462.312L97.668,462.952L97.874,463.591L98.083,464.229L98.293,464.867L98.505,465.503L98.72,466.139L98.936,466.774L99.154,467.408L99.373,468.041L99.595,468.673L99.819,469.304L100.044,469.935L100.272,470.564L100.501,471.193L100.732,471.821L100.965,472.447L101.2,473.073L101.437,473.698L101.675,474.322L101.916,474.946L102.158,475.568L102.402,476.189L102.648,476.81L102.896,477.429L103.145,478.048L103.397,478.665L103.65,479.282L103.905,479.898L104.162,480.513L104.421,481.126L104.681,481.739L104.944,482.351L105.208,482.962L105.474,483.572L105.741,484.181L106.011,484.789L106.282,485.397L106.555,486.003L106.83,486.608L107.107,487.212L107.386,487.815L107.666,488.418L107.948,489.019L108.232,489.619L108.517,490.218L108.804,490.817L109.094,491.414L109.384,492.01L109.677,492.605L109.971,493.199L110.267,493.793L110.565,494.385L110.865,494.976L111.166,495.566L111.469,496.155L111.774,496.743L112.08,497.33L112.389,497.916L112.698,498.501L113.01,499.085L113.323,499.668L113.639,500.25L113.955,500.83L114.274,501.41L114.594,501.988L114.916,502.566L115.239,503.142L115.565,503.718L115.891,504.292L116.22,504.865L116.55,505.437L116.882,506.008L117.216,506.578L117.551,507.147L117.888,507.715L118.227,508.281L118.567,508.847L118.909,509.411L119.253,509.975L119.598,510.537L119.945,511.098L120.293,511.658L120.643,512.217L120.995,512.774L121.349,513.331L121.704,513.886L122.06,514.441L122.419,514.994L122.779,515.546L123.14,516.097L123.503,516.646L123.868,517.195L124.234,517.742L124.602,518.289L124.972,518.834L125.343,519.377L125.716,519.92L126.09,520.462L126.466,521.002L126.844,521.541L127.223,522.079L127.603,522.616L127.985,523.152L128.369,523.686L128.755,524.219L129.141,524.751L129.53,525.282L129.92,525.812L130.311,526.34L130.705,526.867L131.099,527.393L131.495,527.918L131.893,528.441L132.292,528.963L132.693,529.484L133.096,530.004L133.499,530.523L133.905,531.04L134.312,531.556L134.72,532.071L135.13,532.584L135.541,533.097L135.954,533.608L136.369,534.118L136.785,534.626L137.202,535.133L137.621,535.639L138.041,536.144L138.463,536.647L138.886,537.149L139.311,537.65L139.737,538.15L140.165,538.648L140.594,539.145L141.025,539.64L141.457,540.135L141.891,540.628L142.326,541.12L142.762,541.61L143.2,542.099L143.64,542.587L144.081,543.073L144.523,543.558L144.967,544.042L145.412,544.524L145.858,545.006L146.306,545.485L146.756,545.964L147.206,546.441L147.659,546.917L148.112,547.391L148.567,547.864L149.024,548.336L149.482,548.806L149.941,549.275L150.401,549.742L150.863,550.208L151.327,550.673L151.792,551.137L152.258,551.599L152.725,552.059L153.194,552.518L153.664,552.976L154.136,553.433L154.609,553.888L155.083,554.341L155.559,554.794L156.036,555.244L156.515,555.694L156.994,556.142L157.476,556.588L157.958,557.033L158.442,557.477L158.927,557.919L159.413,558.36L159.901,558.8L160.39,559.238L160.88,559.674L161.372,560.109L161.865,560.543L162.36,560.975L162.855,561.406L163.352,561.835L163.85,562.263L164.35,562.689L164.851,563.114L165.353,563.537L165.856,563.959L166.361,564.379L166.867,564.798L167.374,565.215L167.882,565.631L168.392,566.046L168.903,566.459L169.416,566.87L169.929,567.28L170.444,567.688L170.96,568.095L171.477,568.501L171.996,568.904L172.516,569.307L173.037,569.708L173.559,570.107L174.082,570.505L174.607,570.901L175.133,571.295L175.66,571.689L176.188,572.08L176.718,572.47L177.249,572.859L177.781,573.245L178.314,573.631L178.848,574.015L179.384,574.397L179.921,574.777L180.459,575.156L180.998,575.534L181.538,575.91L182.08,576.284L182.623,576.657L183.166,577.028L183.711,577.398L184.258,577.766L184.805,578.132L185.354,578.497L185.903,578.86L186.454,579.221L187.006,579.581L187.559,579.94L188.114,580.296L188.669,580.651L189.226,581.005L189.783,581.357L190.342,581.707L190.902,582.055L191.463,582.402L192.025,582.747L192.589,583.091L193.153,583.433L193.719,583.773L194.285,584.112L194.853,584.449L195.422,584.784L195.992,585.118L196.563,585.45L197.135,585.78L197.708,586.109L198.282,586.435L198.858,586.761L199.434,587.084L200.012,587.406L200.59,587.726L201.17,588.045L201.75,588.361L202.332,588.677L202.915,588.99L203.499,589.302L204.084,589.611L204.67,589.92L205.257,590.226L205.845,590.531L206.434,590.834L207.024,591.135L207.615,591.435L208.207,591.733L208.801,592.029L209.395,592.323L209.99,592.616L210.586,592.906L211.183,593.196L211.782,593.483L212.381,593.768L212.981,594.052L213.582,594.334L214.185,594.614L214.788,594.893L215.392,595.17L215.997,595.445L216.603,595.718L217.211,595.989L217.819,596.259L218.428,596.526L219.038,596.792L219.649,597.056L220.261,597.319L220.874,597.579L221.487,597.838L222.102,598.095L222.718,598.35L223.335,598.603L223.952,598.855L224.571,599.104L225.19,599.352L225.811,599.598L226.432,599.842L227.054,600.084L227.678,600.325L228.302,600.563L228.927,600.8L229.553,601.035L230.179,601.268L230.807,601.499L231.436,601.728L232.065,601.956L232.696,602.181L233.327,602.405L233.959,602.627L234.592,602.846L235.226,603.064L235.861,603.28L236.497,603.495L237.133,603.707L237.771,603.917L238.409,604.126L239.048,604.332L239.688,604.537L240.329,604.74L240.97,604.941L241.613,605.14L242.256,605.337L242.9,605.532L243.546,605.725L244.191,605.916L244.838,606.105L245.486,606.293L246.134,606.478L246.783,606.662L247.433,606.843L248.084,607.023L248.735,607.2L249.388,607.376L250.041,607.549L250.695,607.721L251.35,607.891L252.005,608.059L252.661,608.224L253.319,608.388L253.976,608.55L254.635,608.71L255.295,608.868L255.955,609.023L256.616,609.177L257.277,609.329L257.94,609.479L258.603,609.627L259.267,609.773L259.932,609.916L260.597,610.058L261.264,610.198L261.931,610.336L262.598,610.471L263.267,610.605L263.936,610.737L264.606,610.866L265.277,610.994L265.948,611.119L266.62,611.243L267.293,611.364L267.966,611.483L268.64,611.601L269.315,611.716L269.991,611.829L270.667,611.94L271.344,612.049L272.022,612.156L272.7,612.261L273.379,612.364L274.059,612.464L274.739,612.563L275.42,612.66L276.102,612.754L276.784,612.846L277.467,612.937L278.151,613.025L278.835,613.111L279.52,613.195L280.206,613.276L280.892,613.356L281.579,613.434L282.267,613.509L282.955,613.582L283.644,613.653L284.333,613.722L285.024,613.789L285.714,613.854L286.406,613.917L287.098,613.977L287.79,614.035L288.483,614.091L289.177,614.145L289.871,614.197L290.566,614.247L291.262,614.294L291.958,614.34L292.655,614.383L293.352,614.424L294.05,614.462L294.749,614.499L295.448,614.533L296.147,614.565L296.847,614.595L297.548,614.623L298.249,614.649L298.951,614.672L299.654,614.693L300.357,614.712L301.06,614.729L301.764,614.744L302.469,614.756L303.174,614.766L303.88,614.774L304.586,614.779L305.293,614.783L306,614.784L306.707,614.783L307.414,614.779L308.12,614.774L308.826,614.766L309.531,614.756L310.236,614.744L310.94,614.729L311.643,614.712L312.346,614.693L313.049,614.672L313.751,614.649L314.452,614.623L315.153,614.595L315.853,614.565L316.552,614.533L317.251,614.499L317.95,614.462L318.648,614.424L319.345,614.383L320.042,614.34L320.738,614.294L321.434,614.247L322.129,614.197L322.823,614.145L323.517,614.091L324.21,614.035L324.902,613.977L325.594,613.917L326.286,613.854L326.976,613.789L327.667,613.722L328.356,613.653L329.045,613.582L329.733,613.509L330.421,613.434L331.108,613.356L331.794,613.276L332.48,613.195L333.165,613.111L333.849,613.025L334.533,612.937L335.216,612.846L335.898,612.754L336.58,612.66L337.261,612.563L337.941,612.464L338.621,612.364L339.3,612.261L339.978,612.156L340.656,612.049L341.333,611.94L342.009,611.829L342.685,611.716L343.36,611.601L344.034,611.483L344.707,611.364L345.38,611.243L346.052,611.119L346.723,610.994L347.394,610.866L348.064,610.737L348.733,610.605L349.402,610.471L350.069,610.336L350.736,610.198L351.403,610.058L352.068,609.916L352.733,609.773L353.397,609.627L354.06,609.479L354.723,609.329L355.384,609.177L356.045,609.023L356.705,608.868L357.365,608.71L358.024,608.55L358.681,608.388L359.339,608.224L359.995,608.059L360.65,607.891L361.305,607.721L361.959,607.549L362.612,607.376L363.265,607.2L363.916,607.023L364.567,606.843L365.217,606.662L365.866,606.478L366.514,606.293L367.162,606.105L367.809,605.916L368.454,605.725L369.1,605.532L369.744,605.337L370.387,605.14L371.03,604.941L371.671,604.74L372.312,604.537L372.952,604.332L373.591,604.126L374.229,603.917L374.867,603.707L375.503,603.495L376.139,603.28L376.774,603.064L377.408,602.846L378.041,602.627L378.673,602.405L379.304,602.181L379.935,601.956L380.564,601.728L381.193,601.499L381.821,601.268L382.447,601.035L383.073,600.8L383.698,600.563L384.322,600.325L384.946,600.084L385.568,599.842L386.189,599.598L386.81,599.352L387.429,599.104L388.048,598.855L388.665,598.603L389.282,598.35L389.898,598.095L390.513,597.838L391.126,597.579L391.739,597.319L392.351,597.056L392.962,596.792L393.572,596.526L394.181,596.259L394.789,595.989L395.397,595.718L396.003,595.445L396.608,595.17L397.212,594.893L397.815,594.614L398.418,594.334L399.019,594.052L399.619,593.768L400.218,593.483L400.817,593.196L401.414,592.906L402.01,592.616L402.605,592.323L403.199,592.029L403.793,591.733L404.385,591.435L404.976,591.135L405.566,590.834L406.155,590.531L406.743,590.226L407.33,589.92L407.916,589.611L408.501,589.302L409.085,588.99L409.668,588.677L410.25,588.361L410.83,588.045L411.41,587.726L411.988,587.406L412.566,587.084L413.142,586.761L413.718,586.435L414.292,586.109L414.865,585.78L415.437,585.45L416.008,585.118L416.578,584.784L417.147,584.449L417.715,584.112L418.281,583.773L418.847,583.433L419.411,583.091L419.975,582.747L420.537,582.402L421.098,582.055L421.658,581.707L422.217,581.357L422.774,581.005L423.331,580.651L423.886,580.296L424.441,579.94L424.994,579.581L425.546,579.221L426.097,578.86L426.646,578.497L427.195,578.132L427.742,577.766L428.289,577.398L428.834,577.028L429.377,576.657L429.92,576.284L430.462,575.91L431.002,575.534L431.541,575.156L432.079,574.777L432.616,574.397L433.152,574.015L433.686,573.631L434.219,573.245L434.751,572.859L435.282,572.47L435.812,572.08L436.34,571.689L436.867,571.295L437.393,570.901L437.918,570.505L438.441,570.107L438.963,569.708L439.484,569.307L440.004,568.904L440.523,568.501L441.04,568.095L441.556,567.688L442.071,567.28L442.584,566.87L443.097,566.459L443.608,566.046L444.118,565.631L444.626,565.215L445.133,564.798L445.639,564.379L446.144,563.959L446.647,563.537L447.149,563.114L447.65,562.689L448.15,562.263L448.648,561.835L449.145,561.406L449.64,560.975L450.135,560.543L450.628,560.109L451.12,559.674L451.61,559.238L452.099,558.8L452.587,558.36L453.073,557.919L453.558,557.477L454.042,557.033L454.524,556.588L455.006,556.142L455.485,555.694L455.964,555.244L456.441,554.794L456.917,554.341L457.391,553.888L457.864,553.433L458.336,552.976L458.806,552.518L459.275,552.059L459.742,551.599L460.208,551.137L460.673,550.673L461.137,550.208L461.599,549.742L462.059,549.275L462.518,548.806L462.976,548.336L463.433,547.864L463.888,547.391L464.341,546.917L464.794,546.441L465.244,545.964L465.694,545.485L466.142,545.006L466.588,544.524L467.033,544.042L467.477,543.558L467.919,543.073L468.36,542.587L468.8,542.099L469.238,541.61L469.674,541.12L470.109,540.628L470.543,540.135L470.975,539.64L471.406,539.145L471.835,538.648L472.263,538.15L472.689,537.65L473.114,537.149L473.537,536.647L473.959,536.144L474.379,535.639L474.798,535.133L475.215,534.626L475.631,534.118L476.046,533.608L476.459,533.097L476.87,532.584L477.28,532.071L477.688,531.556L478.095,531.04L478.501,530.523L478.904,530.004L479.307,529.484L479.708,528.963L480.107,528.441L480.505,527.918L480.901,527.393L481.295,526.867L481.689,526.34L482.08,525.812L482.47,525.282L482.859,524.751L483.245,524.219L483.631,523.686L484.015,523.152L484.397,522.616L484.777,522.079L485.156,521.541L485.534,521.002L485.91,520.462L486.284,519.92L486.657,519.377L487.028,518.834L487.398,518.289L487.766,517.742L488.132,517.195L488.497,516.646L488.86,516.097L489.221,515.546L489.581,514.994L489.94,514.441L490.296,513.886L490.651,513.331L491.005,512.774L491.357,512.217L491.707,511.658L492.055,511.098L492.402,510.537L492.747,509.975L493.091,509.411L493.433,508.847L493.773,508.281L494.112,507.715L494.449,507.147L494.784,506.578L495.118,506.008L495.45,505.437L495.78,504.865L496.109,504.292L496.435,503.718L496.761,503.142L497.084,502.566L497.406,501.988L497.726,501.41L498.045,500.83L498.361,500.25L498.677,499.668L498.99,499.085L499.302,498.501L499.611,497.916L499.92,497.33L500.226,496.743L500.531,496.155L500.834,495.566L501.135,494.976L501.435,494.385L501.733,493.793L502.029,493.199L502.323,492.605L502.616,492.01L502.906,491.414L503.196,490.817L503.483,490.218L503.768,489.619L504.052,489.019L504.334,488.418L504.614,487.815L504.893,487.212L505.17,486.608L505.445,486.003L505.718,485.397L505.989,484.789L506.259,484.181L506.526,483.572L506.792,482.962L507.056,482.351L507.319,481.739L507.579,481.126L507.838,480.513L508.095,479.898L508.35,479.282L508.603,478.665L508.855,478.048L509.104,477.429L509.352,476.81L509.598,476.189L509.842,475.568L510.084,474.946L510.325,474.322L510.563,473.698L510.8,473.073L511.035,472.447L511.268,471.821L511.499,471.193L511.728,470.564L511.956,469.935L512.181,469.304L512.405,468.673L512.627,468.041L512.846,467.408L513.064,466.774L513.28,466.139L513.495,465.503L513.707,464.867L513.917,464.229L514.126,463.591L514.332,462.952L514.537,462.312L514.74,461.671L514.941,461.03L515.14,460.387L515.337,459.744L515.532,459.1L515.725,458.454L515.916,457.809L516.105,457.162L516.293,456.514L516.478,455.866L516.662,455.217L516.843,454.567L517.023,453.916L517.2,453.265L517.376,452.612L517.549,451.959L517.721,451.305L517.891,450.65L518.059,449.995L518.224,449.339L518.388,448.681L518.55,448.024L518.71,447.365L518.868,446.705L519.023,446.045L519.177,445.384L519.329,444.723L519.479,444.06L519.627,443.397L519.773,442.733L519.916,442.068L520.058,441.403L520.198,440.736L520.336,440.069L520.471,439.402L520.605,438.733L520.737,438.064L520.866,437.394L520.994,436.723L521.119,436.052L521.243,435.38L521.364,434.707L521.483,434.034L521.601,433.36L521.716,432.685L521.829,432.009L521.94,431.333L522.049,430.656L522.156,429.978L522.261,429.3L522.364,428.621L522.464,427.941L522.563,427.261L522.66,426.58L522.754,425.898L522.846,425.216L522.937,424.533L523.025,423.849L523.111,423.165L523.195,422.48L523.276,421.794L523.356,421.108L523.434,420.421L523.509,419.733L523.582,419.045L523.653,418.356L523.722,417.667L523.789,416.976L523.854,416.286L523.917,415.594L523.977,414.902L524.035,414.21L524.091,413.517L524.145,412.823L524.197,412.129L524.247,411.434L524.294,410.738L524.34,410.042L524.383,409.345L524.424,408.648L524.462,407.95L524.499,407.251L524.533,406.552L524.565,405.853L524.595,405.153L524.623,404.452L524.649,403.751L524.672,403.049L524.693,402.346L524.712,401.643L524.729,400.94L524.744,400.236L524.756,399.531L524.766,398.826L524.774,398.12L524.779,397.414L524.783,396.707L524.784,396L524.783,395.293L524.779,394.586L524.774,393.88L524.766,393.174L524.756,392.469L524.744,391.764L524.729,391.06L524.712,390.357L524.693,389.654L524.672,388.951L524.649,388.249L524.623,387.548L524.595,386.847L524.565,386.147L524.533,385.448L524.499,384.749L524.462,384.05L524.424,383.352L524.383,382.655L524.34,381.958L524.294,381.262L524.247,380.566L524.197,379.871L524.145,379.177L524.091,378.483L524.035,377.79L523.977,377.098L523.917,376.406L523.854,375.714L523.789,375.024L523.722,374.333L523.653,373.644L523.582,372.955L523.509,372.267L523.434,371.579L523.356,370.892L523.276,370.206L523.195,369.52L523.111,368.835L523.025,368.151L522.937,367.467L522.846,366.784L522.754,366.102L522.66,365.42L522.563,364.739L522.464,364.059L522.364,363.379L522.261,362.7L522.156,362.022L522.049,361.344L521.94,360.667L521.829,359.991L521.716,359.315L521.601,358.64L521.483,357.966L521.364,357.293L521.243,356.62L521.119,355.948L520.994,355.277L520.866,354.606L520.737,353.936L520.605,353.267L520.471,352.598L520.336,351.931L520.198,351.264L520.058,350.597L519.916,349.932L519.773,349.267L519.627,348.603L519.479,347.94L519.329,347.277L519.177,346.616L519.023,345.955L518.868,345.295L518.71,344.635L518.55,343.976L518.388,343.319L518.224,342.661L518.059,342.005L517.891,341.35L517.721,340.695L517.549,340.041L517.376,339.388L517.2,338.735L517.023,338.084L516.843,337.433L516.662,336.783L516.478,336.134L516.293,335.486L516.105,334.838L515.916,334.191L515.725,333.546L515.532,332.9L515.337,332.256L515.14,331.613L514.941,330.97L514.74,330.329L514.537,329.688L514.332,329.048L514.126,328.409L513.917,327.771L513.707,327.133L513.495,326.497L513.28,325.861L513.064,325.226L512.846,324.592L512.627,323.959L512.405,323.327L512.181,322.696L511.956,322.065L511.728,321.436L511.499,320.807L511.268,320.179L511.035,319.553L510.8,318.927L510.563,318.302L510.325,317.678L510.084,317.054L509.842,316.432L509.598,315.811L509.352,315.19L509.104,314.571L508.855,313.952L508.603,313.335L508.35,312.718L508.095,312.102L507.838,311.487L507.579,310.874L507.319,310.261L507.056,309.649L506.792,309.038L506.526,308.428L506.259,307.819L505.989,307.211L505.718,306.603L505.445,305.997L505.17,305.392L504.893,304.788L504.614,304.185L504.334,303.582L504.052,302.981L503.768,302.381L503.483,301.782L503.196,301.183L502.906,300.586L502.616,299.99L502.323,299.395L502.029,298.801L501.733,298.207L501.435,297.615L501.135,297.024L500.834,296.434L500.531,295.845L500.226,295.257L499.92,294.67L499.611,294.084L499.302,293.499L498.99,292.915L498.677,292.332L498.361,291.75L498.045,291.17L497.726,290.59L497.406,290.012L497.084,289.434L496.761,288.858L496.435,288.282L496.109,287.708L495.78,287.135L495.45,286.563L495.118,285.992L494.784,285.422L494.449,284.853L494.112,284.285L493.773,283.719L493.433,283.153L493.091,282.589L492.747,282.025L492.402,281.463L492.055,280.902L491.707,280.342L491.357,279.783L491.005,279.226L490.651,278.669L490.296,278.114L489.94,277.559L489.581,277.006L489.221,276.454L488.86,275.903L488.497,275.354L488.132,274.805L487.766,274.258L487.398,273.711L487.028,273.166L486.657,272.623L486.284,272.08L485.91,271.538L485.534,270.998L485.156,270.459L484.777,269.921L484.397,269.384L484.015,268.848L483.631,268.314L483.245,267.781L482.859,267.249L482.47,266.718L482.08,266.188L481.689,265.66L481.295,265.133L480.901,264.607L480.505,264.082L480.107,263.559L479.708,263.037L479.307,262.516L478.904,261.996L478.501,261.477L478.095,260.96L477.688,260.444L477.28,259.929L476.87,259.416L476.459,258.903L476.046,258.392L475.631,257.882L475.215,257.374L474.798,256.867L474.379,256.361L473.959,255.856L473.537,255.353L473.114,254.851L472.689,254.35L472.263,253.85L471.835,253.352L471.406,252.855L470.975,252.36L470.543,251.865L470.109,251.372L469.674,250.88L469.238,250.39L468.8,249.901L468.36,249.413L467.919,248.927L467.477,248.442L467.033,247.958L466.588,247.476L466.142,246.994L465.694,246.515L465.244,246.036L464.794,245.559L464.341,245.083L463.888,244.609L463.433,244.136L462.976,243.664L462.518,243.194L462.059,242.725L461.599,242.258L461.137,241.792L460.673,241.327L460.208,240.863L459.742,240.401L459.275,239.941L458.806,239.482L458.336,239.024L457.864,238.567L457.391,238.112L456.917,237.659L456.441,237.206L455.964,236.756L455.485,236.306L455.006,235.858L454.524,235.412L454.042,234.967L453.558,234.523L453.073,234.081L452.587,233.64L452.099,233.2L451.61,232.762L451.12,232.326L450.628,231.891L450.135,231.457L449.64,231.025L449.145,230.594L448.648,230.165L448.15,229.737L447.65,229.311L447.149,228.886L446.647,228.463L446.144,228.041L445.639,227.621L445.133,227.202L444.626,226.785L444.118,226.369L443.608,225.954L443.097,225.541L442.584,225.13L442.071,224.72L441.556,224.312L441.04,223.905L440.523,223.499L440.004,223.096L439.484,222.693L438.963,222.292L438.441,221.893L437.918,221.495L437.393,221.099L436.867,220.705L436.34,220.311L435.812,219.92L435.282,219.53L434.751,219.141L434.219,218.755L433.686,218.369L433.152,217.985L432.616,217.603L432.079,217.223L431.541,216.844L431.002,216.466L430.462,216.09L429.92,215.716L429.377,215.343L428.834,214.972L428.289,214.602L427.742,214.234L427.195,213.868L426.646,213.503L426.097,213.14L425.546,212.779L424.994,212.419L424.441,212.06L423.886,211.704L423.331,211.349L422.774,210.995L422.217,210.643L421.658,210.293L421.098,209.945L420.537,209.598L419.975,209.253L419.411,208.909L418.847,208.567L418.281,208.227L417.715,207.888L417.147,207.551L416.578,207.216L416.008,206.882L415.437,206.55L414.865,206.22L414.292,205.891L413.718,205.565L413.142,205.239L412.566,204.916L411.988,204.594L411.41,204.274L410.83,203.955L410.25,203.639L409.668,203.323L409.085,203.01L408.501,202.698L407.916,202.389L407.33,202.08L406.743,201.774L406.155,201.469L405.566,201.166L404.976,200.865L404.385,200.565L403.793,200.267L403.199,199.971L402.605,199.677L402.01,199.384L401.414,199.094L400.817,198.804L400.218,198.517L399.619,198.232L399.019,197.948L398.418,197.666L397.815,197.386L397.212,197.107L396.608,196.83L396.003,196.555L395.397,196.282L394.789,196.011L394.181,195.741L393.572,195.474L392.962,195.208L392.351,194.944L391.739,194.681L391.126,194.421L390.513,194.162L389.898,193.905L389.282,193.65L388.665,193.397L388.048,193.145L387.429,192.896L386.81,192.648L386.189,192.402L385.568,192.158L384.946,191.916L384.322,191.675L383.698,191.437L383.073,191.2L382.447,190.965L381.821,190.732L381.193,190.501L380.564,190.272L379.935,190.044L379.304,189.819L378.673,189.595L378.041,189.373L377.408,189.154L376.774,188.936L376.139,188.72L375.503,188.505L374.867,188.293L374.229,188.083L373.591,187.874L372.952,187.668L372.312,187.463L371.671,187.26L371.03,187.059L370.387,186.86L369.744,186.663L369.1,186.468L368.454,186.275L367.809,186.084L367.162,185.895L366.514,185.707L365.866,185.522L365.217,185.338L364.567,185.157L363.916,184.977L363.265,184.8L362.612,184.624L361.959,184.451L361.305,184.279L360.65,184.109L359.995,183.941L359.339,183.776L358.681,183.612L358.024,183.45L357.365,183.29L356.705,183.132L356.045,182.977L355.384,182.823L354.723,182.671L354.06,182.521L353.397,182.373L352.733,182.227L352.068,182.084L351.403,181.942L350.736,181.802L350.069,181.664L349.402,181.529L348.733,181.395L348.064,181.263L347.394,181.134L346.723,181.006L346.052,180.881L345.38,180.757L344.707,180.636L344.034,180.517L343.36,180.399L342.685,180.284L342.009,180.171L341.333,180.06L340.656,179.951L339.978,179.844L339.3,179.739L338.621,179.636L337.941,179.536L337.261,179.437L336.58,179.34L335.898,179.246L335.216,179.154L334.533,179.063L333.849,178.975L333.165,178.889L332.48,178.805L331.794,178.724L331.108,178.644L330.421,178.566L329.733,178.491L329.045,178.418L328.356,178.347L327.667,178.278L326.976,178.211L326.286,178.146L325.594,178.083L324.902,178.023L324.21,177.965L323.517,177.909L322.823,177.855L322.129,177.803L321.434,177.753L320.738,177.706L320.042,177.66L319.345,177.617L318.648,177.576L317.95,177.538L317.251,177.501L316.552,177.467L315.853,177.435L315.153,177.405L314.452,177.377L313.751,177.351L313.049,177.328L312.346,177.307L311.643,177.288L310.94,177.271L310.236,177.256L309.531,177.244L308.826,177.234L308.12,177.226L307.414,177.221L306.707,177.217L306,177.216L305.293,177.217Z" style="fill:rgb(64,64,64);"/>
    </g>
</svg>
