<?xml version="1.0" encoding="utf-8"?>
<!-- Generator: Adobe Illustrator 18.1.0, SVG Export Plug-In . SVG Version: 6.00 Build 0)  -->
<svg version="1.1" id="Layer_1" xmlns="http://www.w3.org/2000/svg" xmlns:xlink="http://www.w3.org/1999/xlink" x="0px" y="0px"
	 width="612px" height="528.1px" viewBox="0 0 612 528.1" enable-background="new 0 0 612 528.1" xml:space="preserve">
<g>
	<g>
		<linearGradient id="SVGID_1_" gradientUnits="userSpaceOnUse" x1="34.5821" y1="264.0262" x2="568.6934" y2="264.0262">
			<stop  offset="0" style="stop-color:#E9278B"/>
			<stop  offset="6.204221e-02" style="stop-color:#D528AB"/>
			<stop  offset="0.1362" style="stop-color:#C129C9"/>
			<stop  offset="0.2143" style="stop-color:#B229E1"/>
			<stop  offset="0.297" style="stop-color:#A72AF2"/>
			<stop  offset="0.3874" style="stop-color:#A12AFC"/>
			<stop  offset="0.5" style="stop-color:#9F2AFF"/>
			<stop  offset="0.5977" style="stop-color:#9C2DFF"/>
			<stop  offset="0.6762" style="stop-color:#9237FF"/>
			<stop  offset="0.7481" style="stop-color:#8248FF"/>
			<stop  offset="0.8159" style="stop-color:#6A60FF"/>
			<stop  offset="0.881" style="stop-color:#4C7FFF"/>
			<stop  offset="0.9431" style="stop-color:#28A4FF"/>
			<stop  offset="1" style="stop-color:#00CDFF"/>
		</linearGradient>
		<path fill="url(#SVGID_1_)" d="M568.7,310.3c0,83.3-109,186.3-251.2,186.3c-155.6,0-283-90.6-283-241.1
			c0-103.1,69.7-224.1,202.1-224.1c117.9,0,161.7,82.8,219,120.8C519.5,194.5,568.7,232.2,568.7,310.3z"/>
	</g>
	<path fill="#FFFFFF" d="M349.5,215.4c11.9,0,21.5-9.6,21.5-21.5c0-11.8-9.6-21.5-21.5-21.5c-11.8,0-21.4,9.6-21.4,21.5
		C328,205.8,337.6,215.4,349.5,215.4z M349.8,231.3c-12.1,0-21.9,28.7-21.9,64.1c0,35.4,9.8,64.1,21.9,64.1
		c12.1,0,21.9-28.7,21.9-64.1C371.6,260,361.8,231.3,349.8,231.3z M252.3,231.2c-36,0-59.9,28.5-59.9,64.1
		c0,35.7,23.9,64.1,59.9,64.1c35.9,0,59.7-28.4,59.7-64.1C312,259.7,288.1,231.2,252.3,231.2z M252.3,329.3
		c-16.5,0-25.6-16.9-25.6-34.1c0-17.2,9.1-33.6,25.6-33.6c16.4,0,25.5,16.5,25.5,33.6C277.8,312.3,268.7,329.3,252.3,329.3z"/>
</g>
</svg>
