<svg xmlns="http://www.w3.org/2000/svg" width="511.3" height="511.3"><path fill="#ccc" d="M497.8 326.3l-51.4-70.8 51.4-70.8c1.7-2.5 2-5.2 1-8.3-.6-2.8-2.5-4.7-5.6-5.7l-83.4-27.4V56c0-3-1.2-5.6-3.7-7.5-2.7-2-5.5-2.2-8.2-1L314.5 74 263 3.4C261.5 1 259 0 255.8 0s-5.7 1-7.5 3.4L197 74.2l-83.5-26.8c-2.7-1-5.4-.8-8.3 1-2.5 2-3.7 4.5-3.7 7.6v87.3L18 170.7c-3 1-4.8 3-5.6 5.7-1 3-.6 5.8 1.2 8.3L65 255.5l-51.4 70.8c-1.8 2.3-2 5-1.2 8.3.8 3 2.7 4.8 5.7 5.7l83.5 27.4V455c0 3 1.2 5.6 3.7 7.5 3 2 5.6 2.3 8.3 1.2l83.4-27 51.2 71c2 2.4 4.4 3.6 7.5 3.6s5.5-1.2 7.4-3.7l51.5-70.8 83.4 27c2.5 1 5.3.6 8-1.3 2.6-2 3.8-4.4 3.8-7.4v-87.3l83.4-27.4c3-1 5-2.8 5.7-5.7 1-3.2.5-6-1.2-8.3zm-90.7-7c-8.5 20.3-20.2 37.8-35 52.6-14.7 14.6-32.2 26.3-52.5 35-20.3 8.6-41.6 13-63.8 13-22.3 0-43.6-4.4-63.8-13-20.4-8.7-38-20.4-52.7-35-14.7-15-26.4-32.4-35-52.7-8.7-20.2-13-41.5-13-63.8 0-22.2 4.3-43.5 13-63.8 8.6-20.3 20.3-37.8 35-52.5 14.8-14.8 32.3-26.5 52.6-35 20-8.8 41.4-13 63.7-13 22.2 0 43.5 4.2 63.8 13 20.3 8.5 37.8 20.2 52.5 35 14.8 14.7 26.5 32.2 35 52.5 8.8 20.3 13 41.6 13 63.8 0 22.3-4.2 43.6-13 63.8z"/></svg>